<mxfile host="Electron" agent="Mozilla/5.0 (Macintosh; Intel Mac OS X 10_15_7) AppleWebKit/537.36 (KHTML, like Gecko) draw.io/26.0.16 Chrome/132.0.6834.196 Electron/34.2.0 Safari/537.36" version="26.0.16">
  <diagram name="Page-1" id="XlzlGK5k6UERkV62ZB3r">
    <mxGraphModel dx="1561" dy="354" grid="1" gridSize="10" guides="1" tooltips="1" connect="1" arrows="1" fold="1" page="1" pageScale="1" pageWidth="600" pageHeight="100" math="0" shadow="0">
      <root>
        <mxCell id="0" />
        <mxCell id="1" parent="0" />
        <mxCell id="mLmcHliwGiG98P-fe-qq-25" value="" style="group" vertex="1" connectable="0" parent="1">
          <mxGeometry x="320" y="605" width="151" height="150" as="geometry" />
        </mxCell>
        <mxCell id="mLmcHliwGiG98P-fe-qq-33" value="" style="group" vertex="1" connectable="0" parent="mLmcHliwGiG98P-fe-qq-25">
          <mxGeometry width="151" height="129" as="geometry" />
        </mxCell>
        <mxCell id="mLmcHliwGiG98P-fe-qq-21" value="&lt;div&gt;&lt;b style=&quot;background-color: transparent; color: light-dark(rgb(0, 0, 0), rgb(255, 255, 255));&quot;&gt;Feature&lt;/b&gt;&lt;span style=&quot;background-color: transparent; color: light-dark(rgb(0, 0, 0), rgb(255, 255, 255));&quot;&gt;: Ask user to rate their confidence&lt;/span&gt;&lt;/div&gt;&lt;div&gt;&lt;b&gt;Metric&lt;/b&gt;: Confidence Score&lt;/div&gt;" style="rounded=1;whiteSpace=wrap;html=1;align=left;spacingLeft=5;" vertex="1" parent="mLmcHliwGiG98P-fe-qq-33">
          <mxGeometry y="70" width="151" height="59" as="geometry" />
        </mxCell>
        <mxCell id="mLmcHliwGiG98P-fe-qq-24" value="&lt;div style=&quot;&quot;&gt;&lt;font style=&quot;font-size: 15px;&quot;&gt;&lt;b&gt;Outcome&lt;/b&gt;&lt;/font&gt;&lt;/div&gt;&lt;font style=&quot;text-align: center; font-size: 15px;&quot;&gt;Feel more confident about math&lt;/font&gt;" style="rounded=0;whiteSpace=wrap;html=1;align=left;spacingLeft=7;" vertex="1" parent="mLmcHliwGiG98P-fe-qq-33">
          <mxGeometry x="1" width="150" height="70" as="geometry" />
        </mxCell>
        <mxCell id="mLmcHliwGiG98P-fe-qq-26" value="" style="group" vertex="1" connectable="0" parent="1">
          <mxGeometry x="50" y="800" width="151" height="170" as="geometry" />
        </mxCell>
        <mxCell id="mLmcHliwGiG98P-fe-qq-27" value="&lt;div&gt;&lt;b style=&quot;background-color: transparent; color: light-dark(rgb(0, 0, 0), rgb(255, 255, 255));&quot;&gt;Feature&lt;/b&gt;&lt;span style=&quot;background-color: transparent; color: light-dark(rgb(0, 0, 0), rgb(255, 255, 255));&quot;&gt;: Tests&lt;/span&gt;&lt;/div&gt;&lt;div&gt;&lt;b&gt;Metric&lt;/b&gt;: % correct combined with time per problem&lt;/div&gt;" style="rounded=1;whiteSpace=wrap;html=1;align=left;spacingLeft=5;" vertex="1" parent="mLmcHliwGiG98P-fe-qq-26">
          <mxGeometry y="91" width="151" height="79" as="geometry" />
        </mxCell>
        <mxCell id="mLmcHliwGiG98P-fe-qq-28" value="&lt;div style=&quot;&quot;&gt;&lt;font style=&quot;font-size: 15px;&quot;&gt;&lt;b&gt;Outcome&lt;/b&gt;&lt;/font&gt;&lt;/div&gt;&lt;span style=&quot;font-size: 15px; text-align: center;&quot;&gt;Improve math automaticity&lt;/span&gt;" style="rounded=0;whiteSpace=wrap;html=1;align=left;spacingLeft=7;" vertex="1" parent="mLmcHliwGiG98P-fe-qq-26">
          <mxGeometry x="1" y="20" width="150" height="70" as="geometry" />
        </mxCell>
        <mxCell id="mLmcHliwGiG98P-fe-qq-29" value="" style="group" vertex="1" connectable="0" parent="1">
          <mxGeometry x="320" y="1010" width="151" height="170" as="geometry" />
        </mxCell>
        <mxCell id="mLmcHliwGiG98P-fe-qq-30" value="&lt;div&gt;&lt;b style=&quot;background-color: transparent; color: light-dark(rgb(0, 0, 0), rgb(255, 255, 255));&quot;&gt;Feature&lt;/b&gt;&lt;span style=&quot;background-color: transparent; color: light-dark(rgb(0, 0, 0), rgb(255, 255, 255));&quot;&gt;: Automaticity test&lt;/span&gt;&lt;/div&gt;&lt;div&gt;&lt;b&gt;Metric&lt;/b&gt;: % correct combined with time per problem&lt;/div&gt;" style="rounded=1;whiteSpace=wrap;html=1;align=left;spacingLeft=5;" vertex="1" parent="mLmcHliwGiG98P-fe-qq-29">
          <mxGeometry y="91" width="151" height="79" as="geometry" />
        </mxCell>
        <mxCell id="mLmcHliwGiG98P-fe-qq-31" value="&lt;div style=&quot;&quot;&gt;&lt;font style=&quot;font-size: 15px;&quot;&gt;&lt;b&gt;Outcome&lt;/b&gt;&lt;/font&gt;&lt;/div&gt;&lt;div style=&quot;&quot;&gt;&lt;span style=&quot;background-color: transparent; color: light-dark(rgb(0, 0, 0), rgb(255, 255, 255)); font-size: 15px;&quot;&gt;Better grades in school&lt;/span&gt;&lt;/div&gt;" style="rounded=0;whiteSpace=wrap;html=1;align=left;spacingLeft=7;" vertex="1" parent="mLmcHliwGiG98P-fe-qq-29">
          <mxGeometry x="1" y="20" width="150" height="70" as="geometry" />
        </mxCell>
        <mxCell id="mLmcHliwGiG98P-fe-qq-41" style="edgeStyle=orthogonalEdgeStyle;rounded=0;orthogonalLoop=1;jettySize=auto;html=1;exitX=0.5;exitY=0;exitDx=0;exitDy=0;entryX=1;entryY=0.5;entryDx=0;entryDy=0;" edge="1" parent="1" source="mLmcHliwGiG98P-fe-qq-36" target="mLmcHliwGiG98P-fe-qq-24">
          <mxGeometry relative="1" as="geometry" />
        </mxCell>
        <mxCell id="mLmcHliwGiG98P-fe-qq-42" style="edgeStyle=orthogonalEdgeStyle;rounded=0;orthogonalLoop=1;jettySize=auto;html=1;exitX=0.5;exitY=1;exitDx=0;exitDy=0;entryX=1;entryY=0.5;entryDx=0;entryDy=0;" edge="1" parent="1" source="mLmcHliwGiG98P-fe-qq-36" target="mLmcHliwGiG98P-fe-qq-31">
          <mxGeometry relative="1" as="geometry" />
        </mxCell>
        <mxCell id="mLmcHliwGiG98P-fe-qq-36" value="&lt;div style=&quot;&quot;&gt;&lt;font style=&quot;font-size: 15px;&quot;&gt;&lt;b&gt;Outcome&lt;/b&gt;&lt;/font&gt;&lt;/div&gt;&lt;div style=&quot;&quot;&gt;&lt;span style=&quot;font-size: 15px;&quot;&gt;Improve math proficiency&lt;/span&gt;&lt;/div&gt;" style="rounded=0;whiteSpace=wrap;html=1;align=left;spacingLeft=7;" vertex="1" parent="1">
          <mxGeometry x="560" y="850" width="150" height="70" as="geometry" />
        </mxCell>
        <mxCell id="mLmcHliwGiG98P-fe-qq-40" style="edgeStyle=orthogonalEdgeStyle;rounded=0;orthogonalLoop=1;jettySize=auto;html=1;exitX=0;exitY=0.5;exitDx=0;exitDy=0;entryX=1;entryY=0.5;entryDx=0;entryDy=0;" edge="1" parent="1" source="mLmcHliwGiG98P-fe-qq-37" target="mLmcHliwGiG98P-fe-qq-36">
          <mxGeometry relative="1" as="geometry" />
        </mxCell>
        <mxCell id="mLmcHliwGiG98P-fe-qq-37" value="&lt;div&gt;&lt;b&gt;Behavior:&amp;nbsp;&lt;/b&gt;Practice Regularly&lt;/div&gt;&lt;b&gt;Goal&lt;/b&gt;: Solve problems 10 mins / day&lt;div&gt;&lt;b&gt;Metric&lt;/b&gt;: Time spent solving problems&lt;/div&gt;&lt;div&gt;&lt;b&gt;UX Goal&lt;/b&gt;: Engage and motivate users&lt;/div&gt;" style="rounded=0;whiteSpace=wrap;html=1;align=left;spacingLeft=5;" vertex="1" parent="1">
          <mxGeometry x="790" y="682" width="240" height="80" as="geometry" />
        </mxCell>
        <mxCell id="mLmcHliwGiG98P-fe-qq-38" value="&lt;div&gt;&lt;span style=&quot;background-color: transparent; color: light-dark(rgb(0, 0, 0), rgb(255, 255, 255));&quot;&gt;&lt;b&gt;Features&lt;/b&gt;&lt;/span&gt;&lt;/div&gt;&lt;span style=&quot;color: light-dark(rgb(0, 0, 0), rgb(255, 255, 255)); background-color: transparent;&quot;&gt;(1) Streaks&lt;/span&gt;&lt;br&gt;&lt;span style=&quot;color: light-dark(rgb(0, 0, 0), rgb(255, 255, 255)); background-color: transparent;&quot;&gt;(2) Sounds&lt;/span&gt;&lt;br&gt;&lt;span style=&quot;color: light-dark(rgb(0, 0, 0), rgb(255, 255, 255)); background-color: transparent;&quot;&gt;(3) Progress statistics/messages&lt;/span&gt;&lt;br&gt;&lt;span style=&quot;color: light-dark(rgb(0, 0, 0), rgb(255, 255, 255)); background-color: transparent;&quot;&gt;(4) Reminder notifications&lt;/span&gt;" style="rounded=1;whiteSpace=wrap;html=1;align=left;spacingLeft=5;" vertex="1" parent="1">
          <mxGeometry x="1035" y="682" width="250" height="80" as="geometry" />
        </mxCell>
        <mxCell id="mLmcHliwGiG98P-fe-qq-43" style="edgeStyle=orthogonalEdgeStyle;rounded=0;orthogonalLoop=1;jettySize=auto;html=1;exitX=0;exitY=0.5;exitDx=0;exitDy=0;entryX=1;entryY=0.5;entryDx=0;entryDy=0;" edge="1" parent="1" source="mLmcHliwGiG98P-fe-qq-31" target="mLmcHliwGiG98P-fe-qq-28">
          <mxGeometry relative="1" as="geometry" />
        </mxCell>
        <mxCell id="mLmcHliwGiG98P-fe-qq-45" style="edgeStyle=orthogonalEdgeStyle;rounded=0;orthogonalLoop=1;jettySize=auto;html=1;exitX=0;exitY=0.5;exitDx=0;exitDy=0;entryX=1;entryY=0.5;entryDx=0;entryDy=0;" edge="1" parent="1" source="mLmcHliwGiG98P-fe-qq-24" target="mLmcHliwGiG98P-fe-qq-28">
          <mxGeometry relative="1" as="geometry" />
        </mxCell>
        <mxCell id="mLmcHliwGiG98P-fe-qq-47" value="&lt;div&gt;&lt;b&gt;Behavior: &lt;/b&gt;Seek feedback &amp;amp; correct errors&lt;/div&gt;&lt;b&gt;Goal&lt;/b&gt;: Reinforce learning&lt;div&gt;&lt;b&gt;Metric&lt;/b&gt;: Repeat error rate&amp;nbsp;&lt;/div&gt;&lt;div&gt;&lt;b&gt;UX Goal&lt;/b&gt;: Use encouraging tone&lt;/div&gt;" style="rounded=0;whiteSpace=wrap;html=1;align=left;spacingLeft=5;" vertex="1" parent="1">
          <mxGeometry x="790" y="525" width="240" height="80" as="geometry" />
        </mxCell>
        <mxCell id="mLmcHliwGiG98P-fe-qq-48" value="&lt;div&gt;&lt;span style=&quot;background-color: transparent; color: light-dark(rgb(0, 0, 0), rgb(255, 255, 255));&quot;&gt;&lt;b&gt;Features&lt;/b&gt;&lt;/span&gt;&lt;/div&gt;&lt;span style=&quot;color: light-dark(rgb(0, 0, 0), rgb(255, 255, 255)); background-color: transparent;&quot;&gt;(1) Incorrect Answer:&amp;nbsp; Cell orange, orange x, and feedback tray orange providing correct answer&lt;/span&gt;" style="rounded=1;whiteSpace=wrap;html=1;align=left;spacingLeft=5;" vertex="1" parent="1">
          <mxGeometry x="1035" y="525" width="250" height="80" as="geometry" />
        </mxCell>
      </root>
    </mxGraphModel>
  </diagram>
</mxfile>
